Coordinates
version=1
nRows=13
nColumns=40
inDegrees=yes

Units are S.I. units (second, meters, Newtons, ...)
If the header above contains a line with 'inDegrees', this indicates whether rotational values are in degrees (yes) or radians (no).

endheader
time	pelvis_tilt	pelvis_list	pelvis_rotation	pelvis_tx	pelvis_ty	pelvis_tz	hip_flexion_r	hip_adduction_r	hip_rotation_r	knee_angle_r	knee_angle_r_beta	ankle_angle_r	subtalar_angle_r	mtp_angle_r	hip_flexion_l	hip_adduction_l	hip_rotation_l	knee_angle_l	knee_angle_l_beta	ankle_angle_l	subtalar_angle_l	mtp_angle_l	lumbar_extension	lumbar_bending	lumbar_rotation	arm_flex_r	arm_add_r	arm_rot_r	elbow_flex_r	pro_sup_r	wrist_flex_r	wrist_dev_r	arm_flex_l	arm_add_l	arm_rot_l	elbow_flex_l	pro_sup_l	wrist_flex_l	wrist_dev_l
      5.67500000	     -1.72468278	     -5.51466465	     -5.71129417	     -0.28293576	      0.89087902	     -1.00746004	     12.71303213	     -6.16724753	     -4.49216601	     97.36934112	      1.69941559	    -17.04886431	      0.00000000	      0.00000000	     35.78834866	     -7.00781279	     -9.44705267	     72.23358894	      1.26071396	     24.43704852	      0.00000000	      0.00000000	    -11.16629905	     -0.19151522	      9.94094895	     89.91935974	    -15.23952750	     24.38331399	     35.14052023	     84.35823958	      0.00000000	      0.00000000	     89.94723207	    -14.92177488	     35.89129343	     49.79588160	     81.38337722	      0.00000000	      0.00000000
      5.68000000	     -1.68694718	     -5.53674684	     -5.71712650	     -0.28271757	      0.89181715	     -1.00747026	     12.66300459	     -6.17795229	     -4.52672832	     97.30548695	      1.69830113	    -17.10117067	      0.00000000	      0.00000000	     35.62787336	     -7.03901093	     -9.48781011	     72.03535332	      1.25725409	     24.32308759	      0.00000000	      0.00000000	    -11.15248700	     -0.18839066	      9.92250414	     89.91906387	    -15.24161812	     24.48660639	     35.07870740	     84.36650673	      0.00000000	      0.00000000	     89.94699035	    -14.93500551	     36.01594226	     49.73562642	     81.39250111	      0.00000000	      0.00000000
      5.68500000	     -1.69995915	     -5.53098052	     -5.69719172	     -0.28274156	      0.89271407	     -1.00740746	     12.69328381	     -6.16644035	     -4.54682168	     97.27823459	      1.69782548	    -17.10534584	      0.00000000	      0.00000000	     35.60794047	     -7.04728082	     -9.49395587	     71.97694703	      1.25623471	     24.30473654	      0.00000000	      0.00000000	    -11.12921314	     -0.20529705	      9.89510020	     89.91815547	    -15.25975678	     24.47379874	     35.09754606	     84.36438377	      0.00000000	      0.00000000	     89.94673287	    -14.93098390	     36.00320307	     49.74975481	     81.39259308	      0.00000000	      0.00000000
      5.69000000	     -1.64788506	     -5.56336709	     -5.66479101	     -0.28256548	      0.89388099	     -1.00747522	     12.63231881	     -6.16455518	     -4.65911882	     97.24020660	      1.69716177	    -17.20309811	      0.00000000	      0.00000000	     35.36777113	     -7.04989018	     -9.50779005	     71.59955876	      1.24964804	     24.13304736	      0.00000000	      0.00000000	    -11.14494787	     -0.18770172	      9.85444860	     89.91785164	    -15.28145352	     24.59001928	     34.97672599	     84.37473032	      0.00000000	      0.00000000	     89.94634013	    -14.94242129	     36.10147816	     49.72326471	     81.40051729	      0.00000000	      0.00000000
      5.69500000	     -1.64742300	     -5.57406227	     -5.64662469	     -0.28242486	      0.89466458	     -1.00742171	     12.64145063	     -6.16241155	     -4.67055832	     97.21806008	      1.69677524	    -17.20504658	      0.00000000	      0.00000000	     35.32298525	     -7.06428009	     -9.50702416	     71.54853307	      1.24875748	     24.10965654	      0.00000000	      0.00000000	    -11.11765882	     -0.18465496	      9.83425169	     89.91722889	    -15.29419489	     24.58543816	     34.99432307	     84.37350730	      0.00000000	      0.00000000	     89.94607352	    -14.94699532	     36.10385411	     49.72988491	     81.40134681	      0.00000000	      0.00000000
      5.70000000	     -1.61999308	     -5.61524314	     -5.59120617	     -0.28225476	      0.89568098	     -1.00745577	     12.61085446	     -6.13296967	     -4.74642365	     97.21672189	      1.69675188	    -17.21654518	      0.00000000	      0.00000000	     35.15505032	     -7.06987344	     -9.48024226	     71.25332344	      1.24360510	     23.95545852	      0.00000000	      0.00000000	    -11.10420196	     -0.15766826	      9.77951386	     89.91683844	    -15.32421908	     24.68605514	     34.91111824	     84.38454529	      0.00000000	      0.00000000	     89.94602462	    -14.94437479	     36.23207524	     49.68742965	     81.40955783	      0.00000000	      0.00000000
      5.70500000	     -1.58095305	     -5.62760180	     -5.57166425	     -0.28211493	      0.89672490	     -1.00752365	     12.54081366	     -6.11350236	     -4.77787633	     97.14057504	      1.69542287	    -17.19781320	      0.00000000	      0.00000000	     34.99334263	     -7.06102498	     -9.47864636	     71.02968578	      1.23970188	     23.83300302	      0.00000000	      0.00000000	    -11.11097341	     -0.14931679	      9.75475732	     89.91623099	    -15.35516605	     24.80204251	     34.80986840	     84.39690264	      0.00000000	      0.00000000	     89.94565126	    -14.96869720	     36.34663144	     49.65165221	     81.41780141	      0.00000000	      0.00000000
      5.71000000	     -1.48696253	     -5.64854042	     -5.53372404	     -0.28188923	      0.89785599	     -1.00744015	     12.45237726	     -6.15429303	     -4.88354598	     97.13539969	      1.69533254	    -17.20226522	      0.00000000	      0.00000000	     34.75770622	     -7.07023482	     -9.50168125	     70.79967319	      1.23568741	     23.71417558	      0.00000000	      0.00000000	    -11.17259140	     -0.15448392	      9.71826738	     89.91596437	    -15.35938520	     24.92612438	     34.72882604	     84.41134734	      0.00000000	      0.00000000	     89.94546380	    -14.97419748	     36.46245070	     49.61692207	     81.42660560	      0.00000000	      0.00000000
      5.71500000	     -1.49426140	     -5.65594393	     -5.52953835	     -0.28184640	      0.89869148	     -1.00749523	     12.46647684	     -6.13992949	     -4.90796067	     97.09858914	      1.69469008	    -17.20187384	      0.00000000	      0.00000000	     34.72282703	     -7.07059932	     -9.50709860	     70.73218853	      1.23450958	     23.68606265	      0.00000000	      0.00000000	    -11.14747950	     -0.16096996	      9.69797551	     89.91609258	    -15.36801191	     24.92666759	     34.75848281	     84.41103931	      0.00000000	      0.00000000	     89.94505674	    -14.97162584	     36.46671619	     49.62284362	     81.42766206	      0.00000000	      0.00000000
      5.72000000	     -1.43611607	     -5.68637259	     -5.48089068	     -0.28162081	      0.89994381	     -1.00755364	     12.38011516	     -6.12371359	     -4.99015005	     97.02625590	      1.69342763	    -17.23558616	      0.00000000	      0.00000000	     34.47801669	     -7.05032450	     -9.47372607	     70.36455112	      1.22809309	     23.48673019	      0.00000000	      0.00000000	    -11.17026965	     -0.13233754	      9.65162014	     89.91493342	    -15.39393421	     25.11772619	     34.63492434	     84.43298991	      0.00000000	      0.00000000	     89.94485306	    -15.01292824	     36.71585070	     49.55524662	     81.44371820	      0.00000000	      0.00000000
      5.72500000	     -1.35364514	     -5.72238339	     -5.45358305	     -0.28145057	      0.90087520	     -1.00753297	     12.30102508	     -6.11969239	     -5.03499267	     97.04433697	      1.69374320	    -17.22776998	      0.00000000	      0.00000000	     34.29865935	     -7.06092853	     -9.45201601	     70.20757419	      1.22535333	     23.39402176	      0.00000000	      0.00000000	    -11.21030755	     -0.10837449	      9.61982614	     89.91509181	    -15.40813681	     25.25552532	     34.59232786	     84.44800288	      0.00000000	      0.00000000	     89.94474946	    -15.02406766	     36.81588941	     49.51136963	     81.45324897	      0.00000000	      0.00000000
      5.73000000	     -1.36288497	     -5.73095107	     -5.44996652	     -0.28139995	      0.90184898	     -1.00757524	     12.31916945	     -6.11594901	     -5.04782190	     97.01658924	      1.69325891	    -17.22270645	      0.00000000	      0.00000000	     34.26691101	     -7.06141402	     -9.45888346	     70.14733313	      1.22430192	     23.37523833	      0.00000000	      0.00000000	    -11.19109380	     -0.10929686	      9.60703490	     89.91392637	    -15.42035616	     25.24614848	     34.61993581	     84.44661442	      0.00000000	      0.00000000	     89.94432546	    -15.02413555	     36.81194199	     49.52136839	     81.45370764	      0.00000000	      0.00000000
      5.73500000	     -1.34843316	     -5.78680859	     -5.40774207	     -0.28141188	      0.90291998	     -1.00763920	     12.33960361	     -6.05298804	     -5.10181322	     97.03045517	      1.69350092	    -17.23867019	      0.00000000	      0.00000000	     34.08765959	     -7.06250516	     -9.40518092	     69.77326450	      1.21777320	     23.21820436	      0.00000000	      0.00000000	    -11.18949368	     -0.05167917	      9.58523229	     89.91396209	    -15.46687269	     25.34840220	     34.55427671	     84.45696391	      0.00000000	      0.00000000	     89.94410944	    -15.01944991	     36.95819717	     49.47732152	     81.46345272	      0.00000000	      0.00000000
